<mxfile host="app.diagrams.net" modified="2020-11-16T04:14:09.672Z" agent="5.0 (Macintosh; Intel Mac OS X 10_15_6) AppleWebKit/537.36 (KHTML, like Gecko) Chrome/86.0.4240.198 Safari/537.36" etag="EhZpnABLCCwG4g1i6m_k" version="13.9.9" type="github">
  <diagram id="8I4-EkLES30CtvtHmXLF" name="第 1 页">
    <mxGraphModel dx="3965" dy="3265" grid="0" gridSize="10" guides="1" tooltips="1" connect="1" arrows="1" fold="1" page="0" pageScale="1" pageWidth="827" pageHeight="1169" background="none" math="0" shadow="0">
      <root>
        <mxCell id="0" />
        <mxCell id="1" parent="0" />
        <mxCell id="fb9ybZQ_cux3A-wbJw4Q-12" value="开始" style="ellipse;whiteSpace=wrap;html=1;aspect=fixed;" vertex="1" parent="1">
          <mxGeometry x="499" y="-1195" width="40" height="40" as="geometry" />
        </mxCell>
        <mxCell id="fb9ybZQ_cux3A-wbJw4Q-15" value="" style="endArrow=classic;html=1;exitX=0.5;exitY=1;exitDx=0;exitDy=0;" edge="1" parent="1" source="fb9ybZQ_cux3A-wbJw4Q-12" target="fb9ybZQ_cux3A-wbJw4Q-16">
          <mxGeometry width="50" height="50" relative="1" as="geometry">
            <mxPoint x="509" y="-1005" as="sourcePoint" />
            <mxPoint x="579" y="-1125" as="targetPoint" />
          </mxGeometry>
        </mxCell>
        <mxCell id="fb9ybZQ_cux3A-wbJw4Q-19" style="edgeStyle=orthogonalEdgeStyle;rounded=0;orthogonalLoop=1;jettySize=auto;html=1;exitX=0.5;exitY=1;exitDx=0;exitDy=0;entryX=0.5;entryY=0;entryDx=0;entryDy=0;" edge="1" parent="1" source="fb9ybZQ_cux3A-wbJw4Q-16" target="fb9ybZQ_cux3A-wbJw4Q-18">
          <mxGeometry relative="1" as="geometry" />
        </mxCell>
        <mxCell id="fb9ybZQ_cux3A-wbJw4Q-16" value="教师拟题" style="rounded=0;whiteSpace=wrap;html=1;" vertex="1" parent="1">
          <mxGeometry x="474" y="-1125" width="90" height="40" as="geometry" />
        </mxCell>
        <mxCell id="fb9ybZQ_cux3A-wbJw4Q-28" style="edgeStyle=orthogonalEdgeStyle;rounded=0;orthogonalLoop=1;jettySize=auto;html=1;exitX=0.5;exitY=1;exitDx=0;exitDy=0;" edge="1" parent="1" source="fb9ybZQ_cux3A-wbJw4Q-18" target="fb9ybZQ_cux3A-wbJw4Q-20">
          <mxGeometry relative="1" as="geometry" />
        </mxCell>
        <mxCell id="fb9ybZQ_cux3A-wbJw4Q-18" value="实验室拟题审核" style="rounded=0;whiteSpace=wrap;html=1;" vertex="1" parent="1">
          <mxGeometry x="474" y="-1055" width="90" height="40" as="geometry" />
        </mxCell>
        <mxCell id="fb9ybZQ_cux3A-wbJw4Q-27" value="" style="edgeStyle=orthogonalEdgeStyle;rounded=0;orthogonalLoop=1;jettySize=auto;html=1;" edge="1" parent="1" source="fb9ybZQ_cux3A-wbJw4Q-20" target="fb9ybZQ_cux3A-wbJw4Q-25">
          <mxGeometry relative="1" as="geometry" />
        </mxCell>
        <mxCell id="fb9ybZQ_cux3A-wbJw4Q-33" value="" style="edgeStyle=orthogonalEdgeStyle;rounded=0;orthogonalLoop=1;jettySize=auto;html=1;" edge="1" parent="1" source="fb9ybZQ_cux3A-wbJw4Q-20" target="fb9ybZQ_cux3A-wbJw4Q-32">
          <mxGeometry relative="1" as="geometry" />
        </mxCell>
        <mxCell id="fb9ybZQ_cux3A-wbJw4Q-20" value="通过" style="rhombus;whiteSpace=wrap;html=1;" vertex="1" parent="1">
          <mxGeometry x="474" y="-975" width="90" height="50" as="geometry" />
        </mxCell>
        <mxCell id="fb9ybZQ_cux3A-wbJw4Q-29" style="edgeStyle=orthogonalEdgeStyle;rounded=0;orthogonalLoop=1;jettySize=auto;html=1;exitX=1;exitY=0.5;exitDx=0;exitDy=0;" edge="1" parent="1" source="fb9ybZQ_cux3A-wbJw4Q-25" target="fb9ybZQ_cux3A-wbJw4Q-30">
          <mxGeometry relative="1" as="geometry">
            <mxPoint x="799" y="-1005" as="targetPoint" />
          </mxGeometry>
        </mxCell>
        <mxCell id="fb9ybZQ_cux3A-wbJw4Q-25" value="N" style="ellipse;whiteSpace=wrap;html=1;aspect=fixed;" vertex="1" parent="1">
          <mxGeometry x="619" y="-972.5" width="45" height="45" as="geometry" />
        </mxCell>
        <mxCell id="fb9ybZQ_cux3A-wbJw4Q-38" style="edgeStyle=orthogonalEdgeStyle;rounded=0;orthogonalLoop=1;jettySize=auto;html=1;exitX=0;exitY=0.5;exitDx=0;exitDy=0;entryX=1;entryY=0.5;entryDx=0;entryDy=0;" edge="1" parent="1" source="fb9ybZQ_cux3A-wbJw4Q-26" target="fb9ybZQ_cux3A-wbJw4Q-37">
          <mxGeometry relative="1" as="geometry" />
        </mxCell>
        <mxCell id="fb9ybZQ_cux3A-wbJw4Q-26" value="Y" style="ellipse;whiteSpace=wrap;html=1;aspect=fixed;" vertex="1" parent="1">
          <mxGeometry x="359" y="-865" width="50" height="50" as="geometry" />
        </mxCell>
        <mxCell id="fb9ybZQ_cux3A-wbJw4Q-31" style="edgeStyle=orthogonalEdgeStyle;rounded=0;orthogonalLoop=1;jettySize=auto;html=1;exitX=0;exitY=0.5;exitDx=0;exitDy=0;" edge="1" parent="1" source="fb9ybZQ_cux3A-wbJw4Q-30" target="fb9ybZQ_cux3A-wbJw4Q-18">
          <mxGeometry relative="1" as="geometry" />
        </mxCell>
        <mxCell id="fb9ybZQ_cux3A-wbJw4Q-30" value="拟题驳回修改" style="rounded=0;whiteSpace=wrap;html=1;" vertex="1" parent="1">
          <mxGeometry x="739" y="-1055" width="90" height="40" as="geometry" />
        </mxCell>
        <mxCell id="fb9ybZQ_cux3A-wbJw4Q-35" style="edgeStyle=orthogonalEdgeStyle;rounded=0;orthogonalLoop=1;jettySize=auto;html=1;exitX=0;exitY=0.5;exitDx=0;exitDy=0;entryX=1;entryY=0.5;entryDx=0;entryDy=0;" edge="1" parent="1" source="fb9ybZQ_cux3A-wbJw4Q-32" target="fb9ybZQ_cux3A-wbJw4Q-26">
          <mxGeometry relative="1" as="geometry" />
        </mxCell>
        <mxCell id="fb9ybZQ_cux3A-wbJw4Q-36" style="edgeStyle=orthogonalEdgeStyle;rounded=0;orthogonalLoop=1;jettySize=auto;html=1;exitX=0.5;exitY=1;exitDx=0;exitDy=0;entryX=0.5;entryY=0;entryDx=0;entryDy=0;" edge="1" parent="1" source="fb9ybZQ_cux3A-wbJw4Q-32" target="fb9ybZQ_cux3A-wbJw4Q-34">
          <mxGeometry relative="1" as="geometry" />
        </mxCell>
        <mxCell id="fb9ybZQ_cux3A-wbJw4Q-32" value="是否为重点项目" style="rhombus;whiteSpace=wrap;html=1;" vertex="1" parent="1">
          <mxGeometry x="474" y="-865" width="90" height="50" as="geometry" />
        </mxCell>
        <mxCell id="fb9ybZQ_cux3A-wbJw4Q-41" style="edgeStyle=orthogonalEdgeStyle;rounded=0;orthogonalLoop=1;jettySize=auto;html=1;exitX=0.5;exitY=1;exitDx=0;exitDy=0;entryX=0.5;entryY=0;entryDx=0;entryDy=0;" edge="1" parent="1" source="fb9ybZQ_cux3A-wbJw4Q-34" target="fb9ybZQ_cux3A-wbJw4Q-40">
          <mxGeometry relative="1" as="geometry" />
        </mxCell>
        <mxCell id="fb9ybZQ_cux3A-wbJw4Q-34" value="N" style="ellipse;whiteSpace=wrap;html=1;aspect=fixed;" vertex="1" parent="1">
          <mxGeometry x="494" y="-765" width="50" height="50" as="geometry" />
        </mxCell>
        <mxCell id="fb9ybZQ_cux3A-wbJw4Q-118" style="edgeStyle=orthogonalEdgeStyle;rounded=0;orthogonalLoop=1;jettySize=auto;html=1;" edge="1" parent="1" source="fb9ybZQ_cux3A-wbJw4Q-37" target="fb9ybZQ_cux3A-wbJw4Q-117">
          <mxGeometry relative="1" as="geometry" />
        </mxCell>
        <mxCell id="fb9ybZQ_cux3A-wbJw4Q-37" value="组长填写重点申请书，并提交重点申请" style="rounded=0;whiteSpace=wrap;html=1;" vertex="1" parent="1">
          <mxGeometry x="179" y="-860" width="90" height="40" as="geometry" />
        </mxCell>
        <mxCell id="fb9ybZQ_cux3A-wbJw4Q-47" style="edgeStyle=orthogonalEdgeStyle;rounded=0;orthogonalLoop=1;jettySize=auto;html=1;exitX=0.5;exitY=1;exitDx=0;exitDy=0;entryX=0.5;entryY=0;entryDx=0;entryDy=0;" edge="1" parent="1" source="fb9ybZQ_cux3A-wbJw4Q-40" target="fb9ybZQ_cux3A-wbJw4Q-46">
          <mxGeometry relative="1" as="geometry" />
        </mxCell>
        <mxCell id="fb9ybZQ_cux3A-wbJw4Q-40" value="实验室普通项目审核" style="rounded=0;whiteSpace=wrap;html=1;" vertex="1" parent="1">
          <mxGeometry x="474" y="-665" width="90" height="40" as="geometry" />
        </mxCell>
        <mxCell id="fb9ybZQ_cux3A-wbJw4Q-50" style="edgeStyle=orthogonalEdgeStyle;rounded=0;orthogonalLoop=1;jettySize=auto;html=1;entryX=0.5;entryY=0;entryDx=0;entryDy=0;" edge="1" parent="1" source="fb9ybZQ_cux3A-wbJw4Q-46" target="fb9ybZQ_cux3A-wbJw4Q-49">
          <mxGeometry relative="1" as="geometry" />
        </mxCell>
        <mxCell id="fb9ybZQ_cux3A-wbJw4Q-59" style="edgeStyle=orthogonalEdgeStyle;rounded=0;orthogonalLoop=1;jettySize=auto;html=1;exitX=1;exitY=0.5;exitDx=0;exitDy=0;" edge="1" parent="1" source="fb9ybZQ_cux3A-wbJw4Q-46" target="fb9ybZQ_cux3A-wbJw4Q-57">
          <mxGeometry relative="1" as="geometry" />
        </mxCell>
        <mxCell id="fb9ybZQ_cux3A-wbJw4Q-46" value="通过" style="rhombus;whiteSpace=wrap;html=1;" vertex="1" parent="1">
          <mxGeometry x="474" y="-579" width="90" height="50" as="geometry" />
        </mxCell>
        <mxCell id="fb9ybZQ_cux3A-wbJw4Q-52" style="edgeStyle=orthogonalEdgeStyle;rounded=0;orthogonalLoop=1;jettySize=auto;html=1;exitX=0.5;exitY=1;exitDx=0;exitDy=0;" edge="1" parent="1" source="fb9ybZQ_cux3A-wbJw4Q-49" target="fb9ybZQ_cux3A-wbJw4Q-51">
          <mxGeometry relative="1" as="geometry" />
        </mxCell>
        <mxCell id="fb9ybZQ_cux3A-wbJw4Q-49" value="Y" style="ellipse;whiteSpace=wrap;html=1;aspect=fixed;" vertex="1" parent="1">
          <mxGeometry x="494" y="-483" width="50" height="50" as="geometry" />
        </mxCell>
        <mxCell id="fb9ybZQ_cux3A-wbJw4Q-54" style="edgeStyle=orthogonalEdgeStyle;rounded=0;orthogonalLoop=1;jettySize=auto;html=1;exitX=0.5;exitY=1;exitDx=0;exitDy=0;" edge="1" parent="1" source="fb9ybZQ_cux3A-wbJw4Q-51" target="fb9ybZQ_cux3A-wbJw4Q-53">
          <mxGeometry relative="1" as="geometry" />
        </mxCell>
        <mxCell id="fb9ybZQ_cux3A-wbJw4Q-61" style="edgeStyle=orthogonalEdgeStyle;rounded=0;orthogonalLoop=1;jettySize=auto;html=1;exitX=1;exitY=0.5;exitDx=0;exitDy=0;entryX=0;entryY=0.5;entryDx=0;entryDy=0;" edge="1" parent="1" source="fb9ybZQ_cux3A-wbJw4Q-51" target="fb9ybZQ_cux3A-wbJw4Q-56">
          <mxGeometry relative="1" as="geometry" />
        </mxCell>
        <mxCell id="fb9ybZQ_cux3A-wbJw4Q-51" value="是否需要立项评审" style="rounded=0;whiteSpace=wrap;html=1;" vertex="1" parent="1">
          <mxGeometry x="474" y="-387" width="90" height="40" as="geometry" />
        </mxCell>
        <mxCell id="fb9ybZQ_cux3A-wbJw4Q-66" style="edgeStyle=orthogonalEdgeStyle;rounded=0;orthogonalLoop=1;jettySize=auto;html=1;exitX=0.5;exitY=1;exitDx=0;exitDy=0;entryX=0.5;entryY=0;entryDx=0;entryDy=0;" edge="1" parent="1" source="fb9ybZQ_cux3A-wbJw4Q-53" target="fb9ybZQ_cux3A-wbJw4Q-65">
          <mxGeometry relative="1" as="geometry" />
        </mxCell>
        <mxCell id="fb9ybZQ_cux3A-wbJw4Q-53" value="n" style="ellipse;whiteSpace=wrap;html=1;aspect=fixed;" vertex="1" parent="1">
          <mxGeometry x="494" y="-305" width="50" height="50" as="geometry" />
        </mxCell>
        <mxCell id="fb9ybZQ_cux3A-wbJw4Q-62" style="edgeStyle=orthogonalEdgeStyle;rounded=0;orthogonalLoop=1;jettySize=auto;html=1;exitX=1;exitY=0.5;exitDx=0;exitDy=0;entryX=0.5;entryY=0;entryDx=0;entryDy=0;" edge="1" parent="1" source="fb9ybZQ_cux3A-wbJw4Q-56" target="fb9ybZQ_cux3A-wbJw4Q-63">
          <mxGeometry relative="1" as="geometry">
            <mxPoint x="781" y="-312" as="targetPoint" />
          </mxGeometry>
        </mxCell>
        <mxCell id="fb9ybZQ_cux3A-wbJw4Q-56" value="Y" style="ellipse;whiteSpace=wrap;html=1;aspect=fixed;" vertex="1" parent="1">
          <mxGeometry x="628" y="-392" width="50" height="50" as="geometry" />
        </mxCell>
        <mxCell id="fb9ybZQ_cux3A-wbJw4Q-60" style="edgeStyle=orthogonalEdgeStyle;rounded=0;orthogonalLoop=1;jettySize=auto;html=1;" edge="1" parent="1" source="fb9ybZQ_cux3A-wbJw4Q-57" target="fb9ybZQ_cux3A-wbJw4Q-30">
          <mxGeometry relative="1" as="geometry" />
        </mxCell>
        <mxCell id="fb9ybZQ_cux3A-wbJw4Q-57" value="N" style="ellipse;whiteSpace=wrap;html=1;aspect=fixed;" vertex="1" parent="1">
          <mxGeometry x="631" y="-579" width="50" height="50" as="geometry" />
        </mxCell>
        <mxCell id="fb9ybZQ_cux3A-wbJw4Q-67" style="edgeStyle=orthogonalEdgeStyle;rounded=0;orthogonalLoop=1;jettySize=auto;html=1;exitX=0.5;exitY=1;exitDx=0;exitDy=0;entryX=1;entryY=0.5;entryDx=0;entryDy=0;" edge="1" parent="1" source="fb9ybZQ_cux3A-wbJw4Q-63" target="fb9ybZQ_cux3A-wbJw4Q-65">
          <mxGeometry relative="1" as="geometry" />
        </mxCell>
        <mxCell id="fb9ybZQ_cux3A-wbJw4Q-63" value="评审老师给出评分" style="rounded=0;whiteSpace=wrap;html=1;" vertex="1" parent="1">
          <mxGeometry x="737" y="-300" width="90" height="40" as="geometry" />
        </mxCell>
        <mxCell id="fb9ybZQ_cux3A-wbJw4Q-74" style="edgeStyle=orthogonalEdgeStyle;rounded=0;orthogonalLoop=1;jettySize=auto;html=1;exitX=0.5;exitY=1;exitDx=0;exitDy=0;entryX=0.5;entryY=0;entryDx=0;entryDy=0;" edge="1" parent="1" source="fb9ybZQ_cux3A-wbJw4Q-65" target="fb9ybZQ_cux3A-wbJw4Q-72">
          <mxGeometry relative="1" as="geometry" />
        </mxCell>
        <mxCell id="fb9ybZQ_cux3A-wbJw4Q-65" value="学院普通项目审核" style="rounded=0;whiteSpace=wrap;html=1;" vertex="1" parent="1">
          <mxGeometry x="474" y="-213" width="90" height="40" as="geometry" />
        </mxCell>
        <mxCell id="fb9ybZQ_cux3A-wbJw4Q-71" style="edgeStyle=orthogonalEdgeStyle;rounded=0;orthogonalLoop=1;jettySize=auto;html=1;entryX=0.5;entryY=0;entryDx=0;entryDy=0;" edge="1" parent="1" source="fb9ybZQ_cux3A-wbJw4Q-72" target="fb9ybZQ_cux3A-wbJw4Q-73">
          <mxGeometry relative="1" as="geometry" />
        </mxCell>
        <mxCell id="fb9ybZQ_cux3A-wbJw4Q-80" style="edgeStyle=orthogonalEdgeStyle;rounded=0;orthogonalLoop=1;jettySize=auto;html=1;exitX=0;exitY=0.5;exitDx=0;exitDy=0;entryX=1;entryY=0.5;entryDx=0;entryDy=0;" edge="1" parent="1" source="fb9ybZQ_cux3A-wbJw4Q-72" target="fb9ybZQ_cux3A-wbJw4Q-79">
          <mxGeometry relative="1" as="geometry" />
        </mxCell>
        <mxCell id="fb9ybZQ_cux3A-wbJw4Q-72" value="通过" style="rhombus;whiteSpace=wrap;html=1;" vertex="1" parent="1">
          <mxGeometry x="474" y="-131" width="90" height="50" as="geometry" />
        </mxCell>
        <mxCell id="fb9ybZQ_cux3A-wbJw4Q-82" style="edgeStyle=orthogonalEdgeStyle;rounded=0;orthogonalLoop=1;jettySize=auto;html=1;exitX=0.5;exitY=1;exitDx=0;exitDy=0;entryX=0.5;entryY=0;entryDx=0;entryDy=0;" edge="1" parent="1" source="fb9ybZQ_cux3A-wbJw4Q-73" target="fb9ybZQ_cux3A-wbJw4Q-81">
          <mxGeometry relative="1" as="geometry" />
        </mxCell>
        <mxCell id="fb9ybZQ_cux3A-wbJw4Q-73" value="Y" style="ellipse;whiteSpace=wrap;html=1;aspect=fixed;" vertex="1" parent="1">
          <mxGeometry x="494" y="-35" width="50" height="50" as="geometry" />
        </mxCell>
        <mxCell id="fb9ybZQ_cux3A-wbJw4Q-79" value="立项失败" style="rounded=0;whiteSpace=wrap;html=1;fillColor=#e51400;strokeColor=#B20000;fontColor=#ffffff;" vertex="1" parent="1">
          <mxGeometry x="331" y="-126" width="90" height="40" as="geometry" />
        </mxCell>
        <mxCell id="fb9ybZQ_cux3A-wbJw4Q-85" style="edgeStyle=orthogonalEdgeStyle;rounded=0;orthogonalLoop=1;jettySize=auto;html=1;exitX=0.5;exitY=1;exitDx=0;exitDy=0;entryX=0.5;entryY=0;entryDx=0;entryDy=0;" edge="1" parent="1" source="fb9ybZQ_cux3A-wbJw4Q-81" target="fb9ybZQ_cux3A-wbJw4Q-84">
          <mxGeometry relative="1" as="geometry" />
        </mxCell>
        <mxCell id="fb9ybZQ_cux3A-wbJw4Q-81" value="职能部门普通项目审核" style="rounded=0;whiteSpace=wrap;html=1;" vertex="1" parent="1">
          <mxGeometry x="474" y="54" width="90" height="40" as="geometry" />
        </mxCell>
        <mxCell id="fb9ybZQ_cux3A-wbJw4Q-87" style="edgeStyle=orthogonalEdgeStyle;rounded=0;orthogonalLoop=1;jettySize=auto;html=1;entryX=0;entryY=0.5;entryDx=0;entryDy=0;" edge="1" parent="1" source="fb9ybZQ_cux3A-wbJw4Q-84">
          <mxGeometry relative="1" as="geometry">
            <mxPoint x="614" y="158" as="targetPoint" />
          </mxGeometry>
        </mxCell>
        <mxCell id="fb9ybZQ_cux3A-wbJw4Q-113" style="edgeStyle=orthogonalEdgeStyle;rounded=0;orthogonalLoop=1;jettySize=auto;html=1;entryX=0.5;entryY=0;entryDx=0;entryDy=0;" edge="1" parent="1" source="fb9ybZQ_cux3A-wbJw4Q-84" target="fb9ybZQ_cux3A-wbJw4Q-93">
          <mxGeometry relative="1" as="geometry" />
        </mxCell>
        <mxCell id="fb9ybZQ_cux3A-wbJw4Q-84" value="通过" style="rhombus;whiteSpace=wrap;html=1;" vertex="1" parent="1">
          <mxGeometry x="474" y="133" width="90" height="50" as="geometry" />
        </mxCell>
        <mxCell id="fb9ybZQ_cux3A-wbJw4Q-91" style="edgeStyle=orthogonalEdgeStyle;rounded=0;orthogonalLoop=1;jettySize=auto;html=1;exitX=1;exitY=0.5;exitDx=0;exitDy=0;entryX=0;entryY=0.5;entryDx=0;entryDy=0;" edge="1" parent="1" source="fb9ybZQ_cux3A-wbJw4Q-88" target="fb9ybZQ_cux3A-wbJw4Q-89">
          <mxGeometry relative="1" as="geometry" />
        </mxCell>
        <mxCell id="fb9ybZQ_cux3A-wbJw4Q-88" value="N" style="ellipse;whiteSpace=wrap;html=1;aspect=fixed;" vertex="1" parent="1">
          <mxGeometry x="614" y="135" width="50" height="50" as="geometry" />
        </mxCell>
        <mxCell id="fb9ybZQ_cux3A-wbJw4Q-95" value="" style="edgeStyle=orthogonalEdgeStyle;rounded=0;orthogonalLoop=1;jettySize=auto;html=1;" edge="1" parent="1" source="fb9ybZQ_cux3A-wbJw4Q-89" target="fb9ybZQ_cux3A-wbJw4Q-94">
          <mxGeometry relative="1" as="geometry" />
        </mxCell>
        <mxCell id="fb9ybZQ_cux3A-wbJw4Q-106" style="edgeStyle=orthogonalEdgeStyle;rounded=0;orthogonalLoop=1;jettySize=auto;html=1;exitX=1;exitY=0.5;exitDx=0;exitDy=0;entryX=0;entryY=0.5;entryDx=0;entryDy=0;" edge="1" parent="1" source="fb9ybZQ_cux3A-wbJw4Q-89" target="fb9ybZQ_cux3A-wbJw4Q-105">
          <mxGeometry relative="1" as="geometry" />
        </mxCell>
        <mxCell id="fb9ybZQ_cux3A-wbJw4Q-89" value="打回" style="rhombus;whiteSpace=wrap;html=1;" vertex="1" parent="1">
          <mxGeometry x="703" y="135" width="90" height="50" as="geometry" />
        </mxCell>
        <mxCell id="fb9ybZQ_cux3A-wbJw4Q-115" style="edgeStyle=orthogonalEdgeStyle;rounded=0;orthogonalLoop=1;jettySize=auto;html=1;exitX=0.5;exitY=1;exitDx=0;exitDy=0;" edge="1" parent="1" source="fb9ybZQ_cux3A-wbJw4Q-93" target="fb9ybZQ_cux3A-wbJw4Q-114">
          <mxGeometry relative="1" as="geometry" />
        </mxCell>
        <mxCell id="fb9ybZQ_cux3A-wbJw4Q-93" value="Y" style="ellipse;whiteSpace=wrap;html=1;aspect=fixed;" vertex="1" parent="1">
          <mxGeometry x="494" y="227" width="50" height="50" as="geometry" />
        </mxCell>
        <mxCell id="fb9ybZQ_cux3A-wbJw4Q-97" style="edgeStyle=orthogonalEdgeStyle;rounded=0;orthogonalLoop=1;jettySize=auto;html=1;entryX=0.5;entryY=1;entryDx=0;entryDy=0;" edge="1" parent="1" source="fb9ybZQ_cux3A-wbJw4Q-94" target="fb9ybZQ_cux3A-wbJw4Q-96">
          <mxGeometry relative="1" as="geometry" />
        </mxCell>
        <mxCell id="fb9ybZQ_cux3A-wbJw4Q-94" value="Y" style="ellipse;whiteSpace=wrap;html=1;aspect=fixed;" vertex="1" parent="1">
          <mxGeometry x="723" y="54" width="50" height="50" as="geometry" />
        </mxCell>
        <mxCell id="fb9ybZQ_cux3A-wbJw4Q-101" style="edgeStyle=orthogonalEdgeStyle;rounded=0;orthogonalLoop=1;jettySize=auto;html=1;entryX=0.5;entryY=0;entryDx=0;entryDy=0;" edge="1" parent="1" source="fb9ybZQ_cux3A-wbJw4Q-96" target="fb9ybZQ_cux3A-wbJw4Q-100">
          <mxGeometry relative="1" as="geometry" />
        </mxCell>
        <mxCell id="fb9ybZQ_cux3A-wbJw4Q-96" value="修改拟题" style="rounded=0;whiteSpace=wrap;html=1;" vertex="1" parent="1">
          <mxGeometry x="703" y="-43" width="90" height="40" as="geometry" />
        </mxCell>
        <mxCell id="fb9ybZQ_cux3A-wbJw4Q-107" style="edgeStyle=orthogonalEdgeStyle;rounded=0;orthogonalLoop=1;jettySize=auto;html=1;exitX=0.5;exitY=1;exitDx=0;exitDy=0;entryX=0.5;entryY=0;entryDx=0;entryDy=0;" edge="1" parent="1" source="fb9ybZQ_cux3A-wbJw4Q-100" target="fb9ybZQ_cux3A-wbJw4Q-104">
          <mxGeometry relative="1" as="geometry" />
        </mxCell>
        <mxCell id="fb9ybZQ_cux3A-wbJw4Q-111" style="edgeStyle=orthogonalEdgeStyle;rounded=0;orthogonalLoop=1;jettySize=auto;html=1;exitX=0;exitY=0.5;exitDx=0;exitDy=0;" edge="1" parent="1" source="fb9ybZQ_cux3A-wbJw4Q-100" target="fb9ybZQ_cux3A-wbJw4Q-103">
          <mxGeometry relative="1" as="geometry" />
        </mxCell>
        <mxCell id="fb9ybZQ_cux3A-wbJw4Q-100" value="复核通过" style="rhombus;whiteSpace=wrap;html=1;" vertex="1" parent="1">
          <mxGeometry x="933" y="227" width="90" height="50" as="geometry" />
        </mxCell>
        <mxCell id="fb9ybZQ_cux3A-wbJw4Q-116" style="edgeStyle=orthogonalEdgeStyle;rounded=0;orthogonalLoop=1;jettySize=auto;html=1;exitX=0;exitY=0.5;exitDx=0;exitDy=0;entryX=1;entryY=0.5;entryDx=0;entryDy=0;" edge="1" parent="1" source="fb9ybZQ_cux3A-wbJw4Q-103" target="fb9ybZQ_cux3A-wbJw4Q-114">
          <mxGeometry relative="1" as="geometry" />
        </mxCell>
        <mxCell id="fb9ybZQ_cux3A-wbJw4Q-103" value="Y" style="ellipse;whiteSpace=wrap;html=1;aspect=fixed;" vertex="1" parent="1">
          <mxGeometry x="723" y="227" width="50" height="50" as="geometry" />
        </mxCell>
        <mxCell id="fb9ybZQ_cux3A-wbJw4Q-110" value="" style="edgeStyle=orthogonalEdgeStyle;rounded=0;orthogonalLoop=1;jettySize=auto;html=1;" edge="1" parent="1" source="fb9ybZQ_cux3A-wbJw4Q-104" target="fb9ybZQ_cux3A-wbJw4Q-108">
          <mxGeometry relative="1" as="geometry" />
        </mxCell>
        <mxCell id="fb9ybZQ_cux3A-wbJw4Q-104" value="N" style="ellipse;whiteSpace=wrap;html=1;aspect=fixed;" vertex="1" parent="1">
          <mxGeometry x="953" y="307" width="50" height="50" as="geometry" />
        </mxCell>
        <mxCell id="fb9ybZQ_cux3A-wbJw4Q-105" value="立项失败" style="rounded=0;whiteSpace=wrap;html=1;fillColor=#e51400;strokeColor=#B20000;fontColor=#ffffff;" vertex="1" parent="1">
          <mxGeometry x="852" y="140" width="90" height="40" as="geometry" />
        </mxCell>
        <mxCell id="fb9ybZQ_cux3A-wbJw4Q-108" value="立项失败" style="rounded=0;whiteSpace=wrap;html=1;fillColor=#e51400;strokeColor=#B20000;fontColor=#ffffff;" vertex="1" parent="1">
          <mxGeometry x="933" y="387" width="90" height="40" as="geometry" />
        </mxCell>
        <mxCell id="fb9ybZQ_cux3A-wbJw4Q-114" value="普通项目立项" style="rounded=0;whiteSpace=wrap;html=1;fillColor=#f0a30a;strokeColor=#BD7000;fontColor=#ffffff;" vertex="1" parent="1">
          <mxGeometry x="474" y="312" width="90" height="40" as="geometry" />
        </mxCell>
        <mxCell id="fb9ybZQ_cux3A-wbJw4Q-120" style="edgeStyle=orthogonalEdgeStyle;rounded=0;orthogonalLoop=1;jettySize=auto;html=1;entryX=0.5;entryY=0;entryDx=0;entryDy=0;" edge="1" parent="1" source="fb9ybZQ_cux3A-wbJw4Q-117" target="fb9ybZQ_cux3A-wbJw4Q-119">
          <mxGeometry relative="1" as="geometry" />
        </mxCell>
        <mxCell id="fb9ybZQ_cux3A-wbJw4Q-117" value="指导老师审核" style="rounded=0;whiteSpace=wrap;html=1;" vertex="1" parent="1">
          <mxGeometry x="179" y="-778" width="90" height="40" as="geometry" />
        </mxCell>
        <mxCell id="fb9ybZQ_cux3A-wbJw4Q-122" style="edgeStyle=orthogonalEdgeStyle;rounded=0;orthogonalLoop=1;jettySize=auto;html=1;exitX=0.5;exitY=1;exitDx=0;exitDy=0;entryX=0.5;entryY=0;entryDx=0;entryDy=0;" edge="1" parent="1" source="fb9ybZQ_cux3A-wbJw4Q-119" target="fb9ybZQ_cux3A-wbJw4Q-121">
          <mxGeometry relative="1" as="geometry" />
        </mxCell>
        <mxCell id="fb9ybZQ_cux3A-wbJw4Q-126" style="edgeStyle=orthogonalEdgeStyle;rounded=0;orthogonalLoop=1;jettySize=auto;html=1;exitX=0;exitY=0.5;exitDx=0;exitDy=0;entryX=1;entryY=0.5;entryDx=0;entryDy=0;" edge="1" parent="1" source="fb9ybZQ_cux3A-wbJw4Q-119" target="fb9ybZQ_cux3A-wbJw4Q-125">
          <mxGeometry relative="1" as="geometry" />
        </mxCell>
        <mxCell id="fb9ybZQ_cux3A-wbJw4Q-119" value="通过" style="rhombus;whiteSpace=wrap;html=1;" vertex="1" parent="1">
          <mxGeometry x="179" y="-670" width="90" height="50" as="geometry" />
        </mxCell>
        <mxCell id="fb9ybZQ_cux3A-wbJw4Q-129" style="edgeStyle=orthogonalEdgeStyle;rounded=0;orthogonalLoop=1;jettySize=auto;html=1;exitX=0.5;exitY=1;exitDx=0;exitDy=0;entryX=0.5;entryY=0;entryDx=0;entryDy=0;" edge="1" parent="1" source="fb9ybZQ_cux3A-wbJw4Q-121" target="fb9ybZQ_cux3A-wbJw4Q-128">
          <mxGeometry relative="1" as="geometry" />
        </mxCell>
        <mxCell id="fb9ybZQ_cux3A-wbJw4Q-121" value="Y" style="ellipse;whiteSpace=wrap;html=1;aspect=fixed;" vertex="1" parent="1">
          <mxGeometry x="199" y="-579" width="50" height="50" as="geometry" />
        </mxCell>
        <mxCell id="fb9ybZQ_cux3A-wbJw4Q-124" style="edgeStyle=orthogonalEdgeStyle;rounded=0;orthogonalLoop=1;jettySize=auto;html=1;entryX=0;entryY=0.5;entryDx=0;entryDy=0;" edge="1" parent="1" source="fb9ybZQ_cux3A-wbJw4Q-123" target="fb9ybZQ_cux3A-wbJw4Q-37">
          <mxGeometry relative="1" as="geometry" />
        </mxCell>
        <mxCell id="fb9ybZQ_cux3A-wbJw4Q-123" value="重点项目驳回修改" style="rounded=0;whiteSpace=wrap;html=1;" vertex="1" parent="1">
          <mxGeometry x="-33" y="-860" width="90" height="40" as="geometry" />
        </mxCell>
        <mxCell id="fb9ybZQ_cux3A-wbJw4Q-127" style="edgeStyle=orthogonalEdgeStyle;rounded=0;orthogonalLoop=1;jettySize=auto;html=1;exitX=0;exitY=0.5;exitDx=0;exitDy=0;entryX=0.5;entryY=1;entryDx=0;entryDy=0;" edge="1" parent="1" source="fb9ybZQ_cux3A-wbJw4Q-125" target="fb9ybZQ_cux3A-wbJw4Q-123">
          <mxGeometry relative="1" as="geometry" />
        </mxCell>
        <mxCell id="fb9ybZQ_cux3A-wbJw4Q-125" value="N" style="ellipse;whiteSpace=wrap;html=1;aspect=fixed;" vertex="1" parent="1">
          <mxGeometry x="81" y="-670" width="50" height="50" as="geometry" />
        </mxCell>
        <mxCell id="fb9ybZQ_cux3A-wbJw4Q-133" style="edgeStyle=orthogonalEdgeStyle;rounded=0;orthogonalLoop=1;jettySize=auto;html=1;" edge="1" parent="1" source="fb9ybZQ_cux3A-wbJw4Q-128" target="fb9ybZQ_cux3A-wbJw4Q-131">
          <mxGeometry relative="1" as="geometry" />
        </mxCell>
        <mxCell id="fb9ybZQ_cux3A-wbJw4Q-128" value="实验室重点项目审核" style="rounded=0;whiteSpace=wrap;html=1;" vertex="1" parent="1">
          <mxGeometry x="179" y="-483" width="90" height="40" as="geometry" />
        </mxCell>
        <mxCell id="fb9ybZQ_cux3A-wbJw4Q-130" style="edgeStyle=orthogonalEdgeStyle;rounded=0;orthogonalLoop=1;jettySize=auto;html=1;entryX=0.5;entryY=0;entryDx=0;entryDy=0;" edge="1" parent="1" source="fb9ybZQ_cux3A-wbJw4Q-131" target="fb9ybZQ_cux3A-wbJw4Q-132">
          <mxGeometry relative="1" as="geometry" />
        </mxCell>
        <mxCell id="fb9ybZQ_cux3A-wbJw4Q-135" style="edgeStyle=orthogonalEdgeStyle;rounded=0;orthogonalLoop=1;jettySize=auto;html=1;exitX=0;exitY=0.5;exitDx=0;exitDy=0;" edge="1" parent="1" source="fb9ybZQ_cux3A-wbJw4Q-131" target="fb9ybZQ_cux3A-wbJw4Q-134">
          <mxGeometry relative="1" as="geometry" />
        </mxCell>
        <mxCell id="fb9ybZQ_cux3A-wbJw4Q-131" value="通过" style="rhombus;whiteSpace=wrap;html=1;" vertex="1" parent="1">
          <mxGeometry x="179" y="-415" width="90" height="50" as="geometry" />
        </mxCell>
        <mxCell id="fb9ybZQ_cux3A-wbJw4Q-160" value="" style="edgeStyle=orthogonalEdgeStyle;rounded=0;orthogonalLoop=1;jettySize=auto;html=1;" edge="1" parent="1" source="fb9ybZQ_cux3A-wbJw4Q-132" target="fb9ybZQ_cux3A-wbJw4Q-149">
          <mxGeometry relative="1" as="geometry" />
        </mxCell>
        <mxCell id="fb9ybZQ_cux3A-wbJw4Q-132" value="Y" style="ellipse;whiteSpace=wrap;html=1;aspect=fixed;" vertex="1" parent="1">
          <mxGeometry x="199" y="-319" width="50" height="50" as="geometry" />
        </mxCell>
        <mxCell id="fb9ybZQ_cux3A-wbJw4Q-136" style="edgeStyle=orthogonalEdgeStyle;rounded=0;orthogonalLoop=1;jettySize=auto;html=1;entryX=0.5;entryY=1;entryDx=0;entryDy=0;" edge="1" parent="1" source="fb9ybZQ_cux3A-wbJw4Q-134" target="fb9ybZQ_cux3A-wbJw4Q-123">
          <mxGeometry relative="1" as="geometry" />
        </mxCell>
        <mxCell id="fb9ybZQ_cux3A-wbJw4Q-134" value="N" style="ellipse;whiteSpace=wrap;html=1;aspect=fixed;" vertex="1" parent="1">
          <mxGeometry x="81" y="-415" width="50" height="50" as="geometry" />
        </mxCell>
        <mxCell id="fb9ybZQ_cux3A-wbJw4Q-147" style="edgeStyle=orthogonalEdgeStyle;rounded=0;orthogonalLoop=1;jettySize=auto;html=1;exitX=0.5;exitY=1;exitDx=0;exitDy=0;" edge="1" parent="1" source="fb9ybZQ_cux3A-wbJw4Q-149" target="fb9ybZQ_cux3A-wbJw4Q-151">
          <mxGeometry relative="1" as="geometry" />
        </mxCell>
        <mxCell id="fb9ybZQ_cux3A-wbJw4Q-157" style="edgeStyle=orthogonalEdgeStyle;rounded=0;orthogonalLoop=1;jettySize=auto;html=1;entryX=1;entryY=0.5;entryDx=0;entryDy=0;" edge="1" parent="1" source="fb9ybZQ_cux3A-wbJw4Q-149" target="fb9ybZQ_cux3A-wbJw4Q-153">
          <mxGeometry relative="1" as="geometry" />
        </mxCell>
        <mxCell id="fb9ybZQ_cux3A-wbJw4Q-149" value="是否需要立项评审" style="rounded=0;whiteSpace=wrap;html=1;" vertex="1" parent="1">
          <mxGeometry x="179" y="-235" width="90" height="40" as="geometry" />
        </mxCell>
        <mxCell id="fb9ybZQ_cux3A-wbJw4Q-150" style="edgeStyle=orthogonalEdgeStyle;rounded=0;orthogonalLoop=1;jettySize=auto;html=1;exitX=0.5;exitY=1;exitDx=0;exitDy=0;entryX=0.5;entryY=0;entryDx=0;entryDy=0;" edge="1" parent="1" source="fb9ybZQ_cux3A-wbJw4Q-151" target="fb9ybZQ_cux3A-wbJw4Q-156">
          <mxGeometry relative="1" as="geometry" />
        </mxCell>
        <mxCell id="fb9ybZQ_cux3A-wbJw4Q-151" value="n" style="ellipse;whiteSpace=wrap;html=1;aspect=fixed;" vertex="1" parent="1">
          <mxGeometry x="199" y="-153" width="50" height="50" as="geometry" />
        </mxCell>
        <mxCell id="fb9ybZQ_cux3A-wbJw4Q-158" style="edgeStyle=orthogonalEdgeStyle;rounded=0;orthogonalLoop=1;jettySize=auto;html=1;exitX=0.5;exitY=1;exitDx=0;exitDy=0;entryX=0.5;entryY=0;entryDx=0;entryDy=0;" edge="1" parent="1" source="fb9ybZQ_cux3A-wbJw4Q-153" target="fb9ybZQ_cux3A-wbJw4Q-155">
          <mxGeometry relative="1" as="geometry" />
        </mxCell>
        <mxCell id="fb9ybZQ_cux3A-wbJw4Q-153" value="Y" style="ellipse;whiteSpace=wrap;html=1;aspect=fixed;" vertex="1" parent="1">
          <mxGeometry x="-30" y="-240" width="50" height="50" as="geometry" />
        </mxCell>
        <mxCell id="fb9ybZQ_cux3A-wbJw4Q-159" style="edgeStyle=orthogonalEdgeStyle;rounded=0;orthogonalLoop=1;jettySize=auto;html=1;exitX=0.5;exitY=1;exitDx=0;exitDy=0;entryX=0;entryY=0.5;entryDx=0;entryDy=0;" edge="1" parent="1" source="fb9ybZQ_cux3A-wbJw4Q-155" target="fb9ybZQ_cux3A-wbJw4Q-156">
          <mxGeometry relative="1" as="geometry" />
        </mxCell>
        <mxCell id="fb9ybZQ_cux3A-wbJw4Q-155" value="评审老师给出评分" style="rounded=0;whiteSpace=wrap;html=1;" vertex="1" parent="1">
          <mxGeometry x="-50" y="-143" width="90" height="40" as="geometry" />
        </mxCell>
        <mxCell id="fb9ybZQ_cux3A-wbJw4Q-164" value="" style="edgeStyle=orthogonalEdgeStyle;rounded=0;orthogonalLoop=1;jettySize=auto;html=1;" edge="1" parent="1" source="fb9ybZQ_cux3A-wbJw4Q-156" target="fb9ybZQ_cux3A-wbJw4Q-162">
          <mxGeometry relative="1" as="geometry" />
        </mxCell>
        <mxCell id="fb9ybZQ_cux3A-wbJw4Q-168" style="edgeStyle=orthogonalEdgeStyle;rounded=0;orthogonalLoop=1;jettySize=auto;html=1;entryX=0;entryY=0.5;entryDx=0;entryDy=0;" edge="1" parent="1" source="fb9ybZQ_cux3A-wbJw4Q-156" target="fb9ybZQ_cux3A-wbJw4Q-167">
          <mxGeometry relative="1" as="geometry" />
        </mxCell>
        <mxCell id="fb9ybZQ_cux3A-wbJw4Q-156" value="学院重点项目审核" style="rounded=0;whiteSpace=wrap;html=1;" vertex="1" parent="1">
          <mxGeometry x="179" y="-61" width="90" height="40" as="geometry" />
        </mxCell>
        <mxCell id="fb9ybZQ_cux3A-wbJw4Q-161" style="edgeStyle=orthogonalEdgeStyle;rounded=0;orthogonalLoop=1;jettySize=auto;html=1;entryX=0.5;entryY=0;entryDx=0;entryDy=0;" edge="1" parent="1" source="fb9ybZQ_cux3A-wbJw4Q-162" target="fb9ybZQ_cux3A-wbJw4Q-163">
          <mxGeometry relative="1" as="geometry" />
        </mxCell>
        <mxCell id="fb9ybZQ_cux3A-wbJw4Q-162" value="通过" style="rhombus;whiteSpace=wrap;html=1;" vertex="1" parent="1">
          <mxGeometry x="179" y="21" width="90" height="50" as="geometry" />
        </mxCell>
        <mxCell id="fb9ybZQ_cux3A-wbJw4Q-180" style="edgeStyle=orthogonalEdgeStyle;rounded=0;orthogonalLoop=1;jettySize=auto;html=1;entryX=0.5;entryY=0;entryDx=0;entryDy=0;" edge="1" parent="1" source="fb9ybZQ_cux3A-wbJw4Q-163" target="fb9ybZQ_cux3A-wbJw4Q-179">
          <mxGeometry relative="1" as="geometry" />
        </mxCell>
        <mxCell id="fb9ybZQ_cux3A-wbJw4Q-163" value="Y" style="ellipse;whiteSpace=wrap;html=1;aspect=fixed;" vertex="1" parent="1">
          <mxGeometry x="199" y="117" width="50" height="50" as="geometry" />
        </mxCell>
        <mxCell id="fb9ybZQ_cux3A-wbJw4Q-165" style="edgeStyle=orthogonalEdgeStyle;rounded=0;orthogonalLoop=1;jettySize=auto;html=1;exitX=0;exitY=0.5;exitDx=0;exitDy=0;" edge="1" parent="1" target="fb9ybZQ_cux3A-wbJw4Q-166">
          <mxGeometry relative="1" as="geometry">
            <mxPoint x="179.00000000000023" y="46" as="sourcePoint" />
          </mxGeometry>
        </mxCell>
        <mxCell id="fb9ybZQ_cux3A-wbJw4Q-178" value="" style="edgeStyle=orthogonalEdgeStyle;rounded=0;orthogonalLoop=1;jettySize=auto;html=1;" edge="1" parent="1" source="fb9ybZQ_cux3A-wbJw4Q-166" target="fb9ybZQ_cux3A-wbJw4Q-177">
          <mxGeometry relative="1" as="geometry" />
        </mxCell>
        <mxCell id="fb9ybZQ_cux3A-wbJw4Q-166" value="N" style="ellipse;whiteSpace=wrap;html=1;aspect=fixed;" vertex="1" parent="1">
          <mxGeometry x="81" y="21" width="50" height="50" as="geometry" />
        </mxCell>
        <mxCell id="fb9ybZQ_cux3A-wbJw4Q-173" style="edgeStyle=orthogonalEdgeStyle;rounded=0;orthogonalLoop=1;jettySize=auto;html=1;entryX=0.5;entryY=1;entryDx=0;entryDy=0;" edge="1" parent="1" source="fb9ybZQ_cux3A-wbJw4Q-167" target="fb9ybZQ_cux3A-wbJw4Q-170">
          <mxGeometry relative="1" as="geometry" />
        </mxCell>
        <mxCell id="fb9ybZQ_cux3A-wbJw4Q-175" style="edgeStyle=orthogonalEdgeStyle;rounded=0;orthogonalLoop=1;jettySize=auto;html=1;exitX=0.5;exitY=1;exitDx=0;exitDy=0;entryX=0.5;entryY=0;entryDx=0;entryDy=0;" edge="1" parent="1" source="fb9ybZQ_cux3A-wbJw4Q-167" target="fb9ybZQ_cux3A-wbJw4Q-174">
          <mxGeometry relative="1" as="geometry" />
        </mxCell>
        <mxCell id="fb9ybZQ_cux3A-wbJw4Q-167" value="转为普通项目" style="rhombus;whiteSpace=wrap;html=1;" vertex="1" parent="1">
          <mxGeometry x="319" y="-17" width="90" height="50" as="geometry" />
        </mxCell>
        <mxCell id="fb9ybZQ_cux3A-wbJw4Q-172" style="edgeStyle=orthogonalEdgeStyle;rounded=0;orthogonalLoop=1;jettySize=auto;html=1;exitX=1;exitY=0.5;exitDx=0;exitDy=0;entryX=0;entryY=0.5;entryDx=0;entryDy=0;" edge="1" parent="1" source="fb9ybZQ_cux3A-wbJw4Q-170" target="fb9ybZQ_cux3A-wbJw4Q-81">
          <mxGeometry relative="1" as="geometry" />
        </mxCell>
        <mxCell id="fb9ybZQ_cux3A-wbJw4Q-170" value="Y" style="ellipse;whiteSpace=wrap;html=1;aspect=fixed;" vertex="1" parent="1">
          <mxGeometry x="417" y="-58" width="50" height="50" as="geometry" />
        </mxCell>
        <mxCell id="fb9ybZQ_cux3A-wbJw4Q-176" style="edgeStyle=orthogonalEdgeStyle;rounded=0;orthogonalLoop=1;jettySize=auto;html=1;entryX=1;entryY=0.5;entryDx=0;entryDy=0;" edge="1" parent="1" source="fb9ybZQ_cux3A-wbJw4Q-174" target="fb9ybZQ_cux3A-wbJw4Q-162">
          <mxGeometry relative="1" as="geometry" />
        </mxCell>
        <mxCell id="fb9ybZQ_cux3A-wbJw4Q-174" value="N" style="ellipse;whiteSpace=wrap;html=1;aspect=fixed;" vertex="1" parent="1">
          <mxGeometry x="339" y="49" width="50" height="50" as="geometry" />
        </mxCell>
        <mxCell id="fb9ybZQ_cux3A-wbJw4Q-177" value="立项失败" style="rounded=0;whiteSpace=wrap;html=1;fillColor=#e51400;strokeColor=#B20000;fontColor=#ffffff;" vertex="1" parent="1">
          <mxGeometry x="-50" y="26" width="90" height="40" as="geometry" />
        </mxCell>
        <mxCell id="fb9ybZQ_cux3A-wbJw4Q-184" value="" style="edgeStyle=orthogonalEdgeStyle;rounded=0;orthogonalLoop=1;jettySize=auto;html=1;" edge="1" parent="1" source="fb9ybZQ_cux3A-wbJw4Q-179" target="fb9ybZQ_cux3A-wbJw4Q-182">
          <mxGeometry relative="1" as="geometry" />
        </mxCell>
        <mxCell id="fb9ybZQ_cux3A-wbJw4Q-179" value="职能部门重点项目审核" style="rounded=0;whiteSpace=wrap;html=1;" vertex="1" parent="1">
          <mxGeometry x="179" y="227" width="90" height="40" as="geometry" />
        </mxCell>
        <mxCell id="fb9ybZQ_cux3A-wbJw4Q-181" style="edgeStyle=orthogonalEdgeStyle;rounded=0;orthogonalLoop=1;jettySize=auto;html=1;entryX=0.5;entryY=1;entryDx=0;entryDy=0;" edge="1" parent="1" source="fb9ybZQ_cux3A-wbJw4Q-182" target="fb9ybZQ_cux3A-wbJw4Q-183">
          <mxGeometry relative="1" as="geometry" />
        </mxCell>
        <mxCell id="fb9ybZQ_cux3A-wbJw4Q-182" value="转为普通项目" style="rhombus;whiteSpace=wrap;html=1;" vertex="1" parent="1">
          <mxGeometry x="295" y="222" width="90" height="50" as="geometry" />
        </mxCell>
        <mxCell id="fb9ybZQ_cux3A-wbJw4Q-185" value="" style="edgeStyle=orthogonalEdgeStyle;rounded=0;orthogonalLoop=1;jettySize=auto;html=1;" edge="1" parent="1" source="fb9ybZQ_cux3A-wbJw4Q-183" target="fb9ybZQ_cux3A-wbJw4Q-114">
          <mxGeometry relative="1" as="geometry" />
        </mxCell>
        <mxCell id="fb9ybZQ_cux3A-wbJw4Q-183" value="Y" style="ellipse;whiteSpace=wrap;html=1;aspect=fixed;" vertex="1" parent="1">
          <mxGeometry x="365" y="307" width="50" height="50" as="geometry" />
        </mxCell>
        <mxCell id="fb9ybZQ_cux3A-wbJw4Q-186" style="edgeStyle=orthogonalEdgeStyle;rounded=0;orthogonalLoop=1;jettySize=auto;html=1;exitX=0.5;exitY=1;exitDx=0;exitDy=0;entryX=0.5;entryY=0;entryDx=0;entryDy=0;" edge="1" parent="1" target="fb9ybZQ_cux3A-wbJw4Q-188">
          <mxGeometry relative="1" as="geometry">
            <mxPoint x="224" y="266.0000000000002" as="sourcePoint" />
          </mxGeometry>
        </mxCell>
        <mxCell id="fb9ybZQ_cux3A-wbJw4Q-195" value="" style="edgeStyle=orthogonalEdgeStyle;rounded=0;orthogonalLoop=1;jettySize=auto;html=1;" edge="1" parent="1" source="fb9ybZQ_cux3A-wbJw4Q-188" target="fb9ybZQ_cux3A-wbJw4Q-190">
          <mxGeometry relative="1" as="geometry" />
        </mxCell>
        <mxCell id="fb9ybZQ_cux3A-wbJw4Q-228" style="edgeStyle=orthogonalEdgeStyle;rounded=0;orthogonalLoop=1;jettySize=auto;html=1;" edge="1" parent="1" source="fb9ybZQ_cux3A-wbJw4Q-188" target="fb9ybZQ_cux3A-wbJw4Q-227">
          <mxGeometry relative="1" as="geometry" />
        </mxCell>
        <mxCell id="fb9ybZQ_cux3A-wbJw4Q-188" value="通过" style="rhombus;whiteSpace=wrap;html=1;" vertex="1" parent="1">
          <mxGeometry x="179" y="305" width="90" height="50" as="geometry" />
        </mxCell>
        <mxCell id="fb9ybZQ_cux3A-wbJw4Q-196" value="" style="edgeStyle=orthogonalEdgeStyle;rounded=0;orthogonalLoop=1;jettySize=auto;html=1;" edge="1" parent="1" source="fb9ybZQ_cux3A-wbJw4Q-190" target="fb9ybZQ_cux3A-wbJw4Q-193">
          <mxGeometry relative="1" as="geometry" />
        </mxCell>
        <mxCell id="fb9ybZQ_cux3A-wbJw4Q-190" value="N" style="ellipse;whiteSpace=wrap;html=1;aspect=fixed;" vertex="1" parent="1">
          <mxGeometry x="81" y="305" width="50" height="50" as="geometry" />
        </mxCell>
        <mxCell id="fb9ybZQ_cux3A-wbJw4Q-220" value="" style="edgeStyle=orthogonalEdgeStyle;rounded=0;orthogonalLoop=1;jettySize=auto;html=1;" edge="1" parent="1" source="fb9ybZQ_cux3A-wbJw4Q-193" target="fb9ybZQ_cux3A-wbJw4Q-198">
          <mxGeometry relative="1" as="geometry" />
        </mxCell>
        <mxCell id="fb9ybZQ_cux3A-wbJw4Q-193" value="打回" style="rhombus;whiteSpace=wrap;html=1;" vertex="1" parent="1">
          <mxGeometry x="61" y="387" width="90" height="50" as="geometry" />
        </mxCell>
        <mxCell id="fb9ybZQ_cux3A-wbJw4Q-221" value="" style="edgeStyle=orthogonalEdgeStyle;rounded=0;orthogonalLoop=1;jettySize=auto;html=1;" edge="1" parent="1" source="fb9ybZQ_cux3A-wbJw4Q-198" target="fb9ybZQ_cux3A-wbJw4Q-199">
          <mxGeometry relative="1" as="geometry" />
        </mxCell>
        <mxCell id="fb9ybZQ_cux3A-wbJw4Q-198" value="Y" style="ellipse;whiteSpace=wrap;html=1;aspect=fixed;" vertex="1" parent="1">
          <mxGeometry x="-32" y="387" width="50" height="50" as="geometry" />
        </mxCell>
        <mxCell id="fb9ybZQ_cux3A-wbJw4Q-222" value="" style="edgeStyle=orthogonalEdgeStyle;rounded=0;orthogonalLoop=1;jettySize=auto;html=1;" edge="1" parent="1" source="fb9ybZQ_cux3A-wbJw4Q-199" target="fb9ybZQ_cux3A-wbJw4Q-216">
          <mxGeometry relative="1" as="geometry" />
        </mxCell>
        <mxCell id="fb9ybZQ_cux3A-wbJw4Q-199" value="修改拟题" style="rounded=0;whiteSpace=wrap;html=1;" vertex="1" parent="1">
          <mxGeometry x="-52" y="299" width="90" height="40" as="geometry" />
        </mxCell>
        <mxCell id="fb9ybZQ_cux3A-wbJw4Q-223" value="" style="edgeStyle=orthogonalEdgeStyle;rounded=0;orthogonalLoop=1;jettySize=auto;html=1;" edge="1" parent="1" source="fb9ybZQ_cux3A-wbJw4Q-216" target="fb9ybZQ_cux3A-wbJw4Q-218">
          <mxGeometry relative="1" as="geometry" />
        </mxCell>
        <mxCell id="fb9ybZQ_cux3A-wbJw4Q-226" value="" style="edgeStyle=orthogonalEdgeStyle;rounded=0;orthogonalLoop=1;jettySize=auto;html=1;" edge="1" parent="1" source="fb9ybZQ_cux3A-wbJw4Q-216" target="fb9ybZQ_cux3A-wbJw4Q-225">
          <mxGeometry relative="1" as="geometry" />
        </mxCell>
        <mxCell id="fb9ybZQ_cux3A-wbJw4Q-216" value="复核通过" style="rhombus;whiteSpace=wrap;html=1;" vertex="1" parent="1">
          <mxGeometry x="-218" y="294" width="90" height="50" as="geometry" />
        </mxCell>
        <mxCell id="fb9ybZQ_cux3A-wbJw4Q-224" value="" style="edgeStyle=orthogonalEdgeStyle;rounded=0;orthogonalLoop=1;jettySize=auto;html=1;" edge="1" parent="1" source="fb9ybZQ_cux3A-wbJw4Q-218" target="fb9ybZQ_cux3A-wbJw4Q-219">
          <mxGeometry relative="1" as="geometry" />
        </mxCell>
        <mxCell id="fb9ybZQ_cux3A-wbJw4Q-218" value="N" style="ellipse;whiteSpace=wrap;html=1;aspect=fixed;" vertex="1" parent="1">
          <mxGeometry x="-198" y="211" width="50" height="50" as="geometry" />
        </mxCell>
        <mxCell id="fb9ybZQ_cux3A-wbJw4Q-219" value="立项失败" style="rounded=0;whiteSpace=wrap;html=1;fillColor=#e51400;strokeColor=#B20000;fontColor=#ffffff;" vertex="1" parent="1">
          <mxGeometry x="-218" y="117" width="90" height="40" as="geometry" />
        </mxCell>
        <mxCell id="fb9ybZQ_cux3A-wbJw4Q-229" style="edgeStyle=orthogonalEdgeStyle;rounded=0;orthogonalLoop=1;jettySize=auto;html=1;" edge="1" parent="1" source="fb9ybZQ_cux3A-wbJw4Q-225" target="fb9ybZQ_cux3A-wbJw4Q-227">
          <mxGeometry relative="1" as="geometry" />
        </mxCell>
        <mxCell id="fb9ybZQ_cux3A-wbJw4Q-225" value="Y" style="ellipse;whiteSpace=wrap;html=1;aspect=fixed;" vertex="1" parent="1">
          <mxGeometry x="-198" y="470" width="50" height="50" as="geometry" />
        </mxCell>
        <mxCell id="fb9ybZQ_cux3A-wbJw4Q-227" value="重点项目立项" style="rounded=0;whiteSpace=wrap;html=1;fillColor=#f0a30a;strokeColor=#BD7000;fontColor=#ffffff;" vertex="1" parent="1">
          <mxGeometry x="179" y="475" width="90" height="40" as="geometry" />
        </mxCell>
        <mxCell id="fb9ybZQ_cux3A-wbJw4Q-230" value="&lt;font style=&quot;font-size: 36px&quot;&gt;立项阶段流程图&lt;/font&gt;" style="text;html=1;strokeColor=none;fillColor=none;align=center;verticalAlign=middle;whiteSpace=wrap;rounded=0;" vertex="1" parent="1">
          <mxGeometry x="51" y="-1117" width="338" height="173" as="geometry" />
        </mxCell>
      </root>
    </mxGraphModel>
  </diagram>
</mxfile>
